<svg width="24" height="24" viewBox="0 0 24 24" fill="none" xmlns="http://www.w3.org/2000/svg">
<mask id="path-1-inside-1_1_1924" fill="white">
<path fill-rule="evenodd" clip-rule="evenodd" d="M8.85462 9.75C8.55793 10.483 7.83934 11 7 11C5.89543 11 5 10.1046 5 9C5 7.89543 5.89543 7 7 7C7.83934 7 8.55793 7.51704 8.85462 8.25L18 8.25C18.4142 8.25 18.75 8.58579 18.75 9C18.75 9.41421 18.4142 9.75 18 9.75L8.85462 9.75Z"/>
</mask>
<path fill-rule="evenodd" clip-rule="evenodd" d="M8.85462 9.75C8.55793 10.483 7.83934 11 7 11C5.89543 11 5 10.1046 5 9C5 7.89543 5.89543 7 7 7C7.83934 7 8.55793 7.51704 8.85462 8.25L18 8.25C18.4142 8.25 18.75 8.58579 18.75 9C18.75 9.41421 18.4142 9.75 18 9.75L8.85462 9.75Z" fill="#4DA9FF"/>
<path d="M8.85462 9.75V8.75L8.18059 8.75L7.92768 9.37478L8.85462 9.75ZM8.85462 8.25L7.92768 8.62522L8.18059 9.25H8.85462V8.25ZM18 8.25V7.25V8.25ZM18 9.75V10.75V9.75ZM7.92768 9.37478C7.77859 9.74311 7.4181 10 7 10V12C8.26059 12 9.33726 11.2228 9.78156 10.1252L7.92768 9.37478ZM7 10C6.44772 10 6 9.55228 6 9H4C4 10.6569 5.34315 12 7 12V10ZM6 9C6 8.44772 6.44772 8 7 8V6C5.34315 6 4 7.34315 4 9H6ZM7 8C7.4181 8 7.77859 8.25689 7.92768 8.62522L9.78156 7.87479C9.33726 6.77719 8.26059 6 7 6V8ZM8.85462 9.25L18 9.25V7.25L8.85462 7.25V9.25ZM18 9.25C17.8619 9.25 17.75 9.13807 17.75 9H19.75C19.75 8.0335 18.9665 7.25 18 7.25V9.25ZM17.75 9C17.75 8.86193 17.8619 8.75 18 8.75V10.75C18.9665 10.75 19.75 9.9665 19.75 9H17.75ZM18 8.75L8.85462 8.75V10.75L18 10.75V8.75Z" fill="#4DA9FF" mask="url(#path-1-inside-1_1_1924)"/>
<mask id="path-3-inside-2_1_1924" fill="white">
<path fill-rule="evenodd" clip-rule="evenodd" d="M17 17C18.1046 17 19 16.1046 19 15C19 13.8954 18.1046 13 17 13C16.1607 13 15.4421 13.517 15.1454 14.25L6 14.25C5.58579 14.25 5.25 14.5858 5.25 15C5.25 15.4142 5.58579 15.75 6 15.75L15.1454 15.75C15.4421 16.483 16.1607 17 17 17Z"/>
</mask>
<path fill-rule="evenodd" clip-rule="evenodd" d="M17 17C18.1046 17 19 16.1046 19 15C19 13.8954 18.1046 13 17 13C16.1607 13 15.4421 13.517 15.1454 14.25L6 14.25C5.58579 14.25 5.25 14.5858 5.25 15C5.25 15.4142 5.58579 15.75 6 15.75L15.1454 15.75C15.4421 16.483 16.1607 17 17 17Z" fill="#4DA9FF"/>
<path d="M15.1454 14.25V15.25H15.8194L16.0723 14.6252L15.1454 14.25ZM6 14.25L6 13.25H6V14.25ZM6 15.75L6 14.75H6V15.75ZM15.1454 15.75L16.0723 15.3748L15.8194 14.75L15.1454 14.75V15.75ZM18 15C18 15.5523 17.5523 16 17 16V18C18.6569 18 20 16.6569 20 15H18ZM17 14C17.5523 14 18 14.4477 18 15H20C20 13.3431 18.6569 12 17 12V14ZM16.0723 14.6252C16.2214 14.2569 16.5819 14 17 14V12C15.7394 12 14.6627 12.7772 14.2184 13.8748L16.0723 14.6252ZM6 15.25L15.1454 15.25V13.25L6 13.25L6 15.25ZM6.25 15C6.25 15.1381 6.13807 15.25 6 15.25V13.25C5.0335 13.25 4.25 14.0335 4.25 15H6.25ZM6 14.75C6.13807 14.75 6.25 14.8619 6.25 15H4.25C4.25 15.9665 5.0335 16.75 6 16.75V14.75ZM15.1454 14.75L6 14.75L6 16.75L15.1454 16.75V14.75ZM17 16C16.5819 16 16.2214 15.7431 16.0723 15.3748L14.2184 16.1252C14.6627 17.2228 15.7394 18 17 18V16Z" fill="#4DA9FF" mask="url(#path-3-inside-2_1_1924)"/>
</svg>
