<svg width="40" height="40" viewBox="0 0 40 40" fill="none" xmlns="http://www.w3.org/2000/svg">
<path fill-rule="evenodd" clip-rule="evenodd" d="M26.6668 11.2497C25.5162 11.2497 24.5835 12.1824 24.5835 13.333C24.5835 14.4836 25.5162 15.4163 26.6668 15.4163C27.8174 15.4163 28.7502 14.4836 28.7502 13.333C28.7502 12.1824 27.8174 11.2497 26.6668 11.2497ZM22.0835 13.333C22.0835 10.8017 24.1355 8.74968 26.6668 8.74968C29.1981 8.74968 31.2502 10.8017 31.2502 13.333C31.2502 15.8643 29.1981 17.9163 26.6668 17.9163C24.1355 17.9163 22.0835 15.8643 22.0835 13.333Z" fill="#BBBBBB"/>
<path fill-rule="evenodd" clip-rule="evenodd" d="M19.9045 2.08301H20.0958C23.9431 2.08299 26.9582 2.08297 29.3107 2.39925C31.7185 2.72299 33.6186 3.39855 35.1099 4.8899C36.6013 6.38125 37.2769 8.28129 37.6006 10.6892C37.9169 13.0417 37.9169 16.0567 37.9168 19.9041V20.0953C37.9169 23.9426 37.9169 26.9577 37.6006 29.3102C37.2769 31.7181 36.6013 33.6181 35.1099 35.1094C33.6186 36.6008 31.7185 37.2764 29.3107 37.6001C26.9582 37.9164 23.9431 37.9164 20.0958 37.9163H19.9045C16.0572 37.9164 13.0422 37.9164 10.6897 37.6001C8.28178 37.2764 6.38174 36.6008 4.89039 35.1094C3.39904 33.6181 2.72347 31.7181 2.39974 29.3102C2.08346 26.9577 2.08347 23.9426 2.0835 20.0953V19.904C2.08347 16.0567 2.08346 13.0417 2.39974 10.6892C2.72347 8.28129 3.39904 6.38125 4.89039 4.8899C6.38174 3.39855 8.28178 2.72299 10.6897 2.39925C13.0421 2.08297 16.0572 2.08299 19.9045 2.08301ZM6.65816 33.3417C5.70873 32.3923 5.16391 31.1077 4.87745 28.977C4.62165 27.0745 4.58843 24.6472 4.58413 21.3999L7.07593 19.2196C8.09946 18.324 9.64207 18.3754 10.6038 19.3371L17.7533 26.4866C19.3282 28.0615 21.8073 28.2762 23.6296 26.9956L24.1266 26.6463C25.5569 25.6411 27.492 25.7576 28.7914 26.9271L34.164 31.7624C34.2224 31.815 34.2845 31.8611 34.3493 31.9007C34.0799 32.4688 33.748 32.9359 33.3422 33.3417C32.3927 34.2911 31.1082 34.8359 28.9775 35.1224C26.8109 35.4137 23.9639 35.4163 20.0002 35.4163C16.0365 35.4163 13.1894 35.4137 11.0228 35.1224C8.89212 34.8359 7.60758 34.2911 6.65816 33.3417ZM11.0228 4.87696C8.89212 5.16342 7.60758 5.70824 6.65816 6.65767C5.70873 7.6071 5.16391 8.89163 4.87745 11.0223C4.63556 12.8215 4.5927 15.0898 4.58512 18.0771L5.42968 17.3381C7.44372 15.5759 10.4792 15.6769 12.3715 17.5693L19.5211 24.7188C20.2369 25.4347 21.3638 25.5323 22.1921 24.9502L22.6891 24.6009C25.0729 22.9256 28.2981 23.1197 30.4638 25.0688L35.0871 29.2298C35.0994 29.1469 35.1114 29.0626 35.1229 28.977C35.4142 26.8104 35.4168 23.9634 35.4168 19.9997C35.4168 16.036 35.4142 13.1889 35.1229 11.0223C34.8364 8.89163 34.2916 7.6071 33.3422 6.65767C32.3927 5.70824 31.1082 5.16342 28.9775 4.87696C26.8109 4.58566 23.9639 4.58301 20.0002 4.58301C16.0365 4.58301 13.1894 4.58566 11.0228 4.87696Z" fill="#BBBBBB"/>
</svg>
