<svg width="16" height="14" viewBox="0 0 16 14" fill="none" xmlns="http://www.w3.org/2000/svg">
<path d="M1 4.97989C1 8.41222 5.9 11.9874 5.9 11.9874C5.9 11.9874 7.3 13 8 13C8.7 13 10.1 11.9874 10.1 11.9874C10.1 11.9874 15 8.41222 15 4.97989C15 1.54755 11.15 -0.838308 8 2.87442C4.85 -0.838308 1 1.54755 1 4.97989Z" fill="white"/>
<path d="M5.9 11.9874L5.45793 12.5933L5.46047 12.5952L5.9 11.9874ZM8 2.87442L7.4281 3.35964C7.5706 3.5276 7.77973 3.62442 8 3.62442C8.22026 3.62442 8.4294 3.5276 8.5719 3.35964L8 2.87442ZM10.1 11.9874L10.5395 12.5952L10.5421 12.5933L10.1 11.9874ZM5.9 11.9874C6.34207 11.3816 6.34218 11.3817 6.34228 11.3817C6.34229 11.3817 6.34237 11.3818 6.34238 11.3818C6.34242 11.3818 6.34238 11.3818 6.34226 11.3817C6.34203 11.3815 6.34151 11.3812 6.3407 11.3806C6.33909 11.3794 6.33632 11.3773 6.33244 11.3745C6.32468 11.3687 6.31247 11.3596 6.29611 11.3473C6.26339 11.3227 6.2141 11.2852 6.15061 11.2356C6.02355 11.1366 5.84003 10.9899 5.61891 10.8027C5.17556 10.4275 4.58665 9.8944 4.00029 9.2612C3.41186 8.62577 2.84049 7.90499 2.41953 7.15554C1.99624 6.40193 1.75 5.66371 1.75 4.97989H0.25C0.25 6.01223 0.61626 7.00804 1.11172 7.89012C1.60951 8.77637 2.26314 9.59297 2.89971 10.2804C3.53835 10.97 4.17444 11.5453 4.64984 11.9477C4.8881 12.1493 5.08739 12.3087 5.2283 12.4186C5.29879 12.4735 5.35477 12.5162 5.39383 12.5456C5.41336 12.5603 5.42866 12.5717 5.43945 12.5797C5.44484 12.5837 5.4491 12.5868 5.45219 12.5891C5.45374 12.5902 5.455 12.5912 5.45595 12.5919C5.45643 12.5922 5.45684 12.5925 5.45717 12.5928C5.45733 12.5929 5.45753 12.593 5.45761 12.5931C5.45778 12.5932 5.45793 12.5933 5.9 11.9874ZM1.75 4.97989C1.75 3.53638 2.55706 2.37477 3.6056 1.94073C4.59699 1.53035 6.01541 1.69458 7.4281 3.35964L8.5719 2.38921C6.83459 0.341535 4.75301 -0.15767 3.0319 0.554779C1.36794 1.24357 0.25 2.99106 0.25 4.97989H1.75ZM5.9 11.9874C5.46047 12.5952 5.46055 12.5952 5.46063 12.5953C5.46066 12.5953 5.46075 12.5954 5.46082 12.5954C5.46095 12.5955 5.46111 12.5956 5.46129 12.5957C5.46165 12.596 5.4621 12.5963 5.46263 12.5967C5.46369 12.5975 5.46509 12.5985 5.46683 12.5997C5.47029 12.6022 5.47508 12.6056 5.48113 12.6099C5.49324 12.6186 5.51041 12.6307 5.53212 12.6459C5.57552 12.6762 5.63728 12.7187 5.71325 12.7694C5.86447 12.8704 6.07541 13.0061 6.31189 13.1429C6.54612 13.2784 6.81829 13.4226 7.0901 13.5349C7.34408 13.6399 7.67395 13.75 8 13.75V12.25C8.00066 12.25 7.99247 12.25 7.97396 12.2472C7.95571 12.2444 7.93104 12.2394 7.89955 12.2312C7.83551 12.2143 7.75626 12.1872 7.66303 12.1487C7.47546 12.0711 7.26638 11.9622 7.06311 11.8446C6.86209 11.7282 6.67928 11.6108 6.54612 11.5219C6.4799 11.4777 6.42683 11.4411 6.39092 11.416C6.37299 11.4035 6.3594 11.3939 6.35065 11.3877C6.34628 11.3846 6.34313 11.3823 6.34125 11.381C6.34031 11.3803 6.33969 11.3798 6.3394 11.3796C6.33926 11.3795 6.3392 11.3795 6.33922 11.3795C6.33923 11.3795 6.33926 11.3795 6.33931 11.3796C6.33934 11.3796 6.33939 11.3796 6.33941 11.3796C6.33946 11.3797 6.33953 11.3797 5.9 11.9874ZM10.1 11.9874C10.5421 12.5933 10.5422 12.5932 10.5424 12.5931C10.5425 12.593 10.5427 12.5929 10.5428 12.5928C10.5432 12.5925 10.5436 12.5922 10.544 12.5919C10.545 12.5912 10.5463 12.5902 10.5478 12.5891C10.5509 12.5868 10.5552 12.5837 10.5606 12.5797C10.5713 12.5717 10.5866 12.5603 10.6062 12.5456C10.6452 12.5162 10.7012 12.4735 10.7717 12.4186C10.9126 12.3087 11.1119 12.1493 11.3502 11.9477C11.8256 11.5453 12.4617 10.97 13.1003 10.2804C13.7369 9.59297 14.3905 8.77637 14.8883 7.89012C15.3837 7.00804 15.75 6.01223 15.75 4.97989H14.25C14.25 5.66371 14.0038 6.40193 13.5805 7.15554C13.1595 7.90499 12.5881 8.62577 11.9997 9.2612C11.4133 9.8944 10.8244 10.4275 10.3811 10.8027C10.16 10.9899 9.97645 11.1366 9.84939 11.2356C9.7859 11.2852 9.73661 11.3227 9.70389 11.3473C9.68753 11.3596 9.67532 11.3687 9.66756 11.3745C9.66368 11.3773 9.66091 11.3794 9.6593 11.3806C9.65849 11.3812 9.65797 11.3815 9.65774 11.3817C9.65762 11.3818 9.65758 11.3818 9.65762 11.3818C9.65763 11.3818 9.65771 11.3817 9.65772 11.3817C9.65782 11.3817 9.65793 11.3816 10.1 11.9874ZM15.75 4.97989C15.75 2.99106 14.6321 1.24357 12.9681 0.554779C11.247 -0.15767 9.16541 0.341535 7.4281 2.38921L8.5719 3.35964C9.98459 1.69458 11.403 1.53035 12.3944 1.94073C13.4429 2.37477 14.25 3.53638 14.25 4.97989H15.75ZM10.1 11.9874C9.66047 11.3797 9.66053 11.3797 9.66059 11.3796C9.66061 11.3796 9.66066 11.3796 9.66069 11.3796C9.66074 11.3795 9.66077 11.3795 9.66078 11.3795C9.6608 11.3795 9.66074 11.3795 9.66059 11.3796C9.66031 11.3798 9.65969 11.3803 9.65875 11.381C9.65687 11.3823 9.65372 11.3846 9.64935 11.3877C9.6406 11.3939 9.62701 11.4035 9.60908 11.416C9.57317 11.4411 9.5201 11.4777 9.45388 11.5219C9.32072 11.6108 9.13791 11.7282 8.93689 11.8446C8.73362 11.9622 8.52454 12.0711 8.33697 12.1487C8.24374 12.1872 8.16449 12.2143 8.10045 12.2312C8.06896 12.2394 8.04429 12.2444 8.02604 12.2472C8.00753 12.25 7.99933 12.25 8 12.25V13.75C8.32605 13.75 8.65592 13.6399 8.9099 13.5349C9.18171 13.4226 9.45388 13.2784 9.68811 13.1429C9.92459 13.0061 10.1355 12.8704 10.2867 12.7694C10.3627 12.7187 10.4245 12.6762 10.4679 12.6459C10.4896 12.6307 10.5068 12.6186 10.5189 12.6099C10.5249 12.6056 10.5297 12.6022 10.5332 12.5997C10.5349 12.5985 10.5363 12.5975 10.5374 12.5967C10.5379 12.5963 10.5383 12.596 10.5387 12.5957C10.5389 12.5956 10.539 12.5955 10.5392 12.5954C10.5393 12.5954 10.5393 12.5953 10.5394 12.5953C10.5395 12.5952 10.5395 12.5952 10.1 11.9874Z" fill="#DEDEDE"/>
</svg>
