<svg width="64" height="80" viewBox="0 0 64 80" fill="none" xmlns="http://www.w3.org/2000/svg">
<circle cx="32" cy="35.5996" r="32" fill="#1B92FF"/>
<mask id="mask0_1_1504" style="mask-type:alpha" maskUnits="userSpaceOnUse" x="32" y="3" width="32" height="74">
<rect width="32" height="72.8" transform="matrix(1 0 0 -1 32 76.4004)" fill="#D9D9D9"/>
</mask>
<g mask="url(#mask0_1_1504)">
<path d="M0 35.5996C0 61.9996 32 76.3996 32 76.3996C32 76.3996 64 61.9996 64 35.5996C64 17.9265 49.6731 3.59961 32 3.59961C14.3269 3.59961 0 17.9265 0 35.5996Z" fill="#1B92FF"/>
</g>
<rect x="40.0657" y="23.8535" width="8.96" height="24.32" rx="4.48" fill="#E9F4FF"/>
<rect x="24.5049" y="23.8984" width="8.96" height="24.32" rx="4.48" fill="#E9F4FF"/>
<rect opacity="0.8" x="29" y="22.0234" width="8.96" height="30.8215" rx="4.48" transform="rotate(45.4799 29 22.0234)" fill="#E9F4FF"/>
<rect opacity="0.8" x="50.7798" y="31.4688" width="8.83689" height="17.4077" rx="4.41844" transform="rotate(45.4799 50.7798 31.4688)" fill="#E9F4FF"/>
<rect opacity="0.8" x="44.5608" y="21.9785" width="9.06325" height="30.7102" rx="4.53162" transform="rotate(45.4799 44.5608 21.9785)" fill="#E9F4FF"/>
</svg>
