<?xml version="1.0" encoding="UTF-8"?>
<svg version="1.1" xmlns="http://www.w3.org/2000/svg" width="319" height="319">
<path d="M0 0 C2.82335476 1.10678244 4.35523586 2.6837701 6.49611759 4.83256149 C7.35985996 5.69217987 8.22360233 6.55179825 9.11351871 7.43746567 C10.06254145 8.39710539 11.01141968 9.35688803 11.96016788 10.31679916 C12.96502678 11.32250431 13.9705468 12.32754925 14.97667789 13.33198166 C17.70625294 16.06069525 20.42647345 18.79856597 23.14512825 21.53815389 C25.98784058 24.3996079 28.83903918 27.25258008 31.6893549 30.10645676 C37.08556458 35.51199427 42.47408078 40.92513429 47.85988593 46.34103626 C53.99179037 52.5064617 60.13220585 58.66338042 66.27335691 64.81959355 C78.90600437 77.48360674 91.52790489 90.15828215 104.14278507 102.83999252 C107.58950338 101.35759946 109.80241095 99.41701334 112.43123722 96.75840378 C113.2807848 95.90437973 114.13033237 95.05035568 115.00562382 94.17045212 C115.92938313 93.23164703 116.85314243 92.29284195 117.80489445 91.32558823 C118.79358651 90.32814426 119.78275998 89.33117726 120.77237797 88.33465195 C122.9003844 86.19016976 125.0253853 84.04276829 127.14823246 81.89317894 C130.50338742 78.49666298 133.86776592 75.10938701 137.2339716 71.72382736 C146.8039392 62.09627235 156.36377896 52.45873787 165.90889835 42.80654526 C171.18231385 37.47413447 176.46457679 32.15065481 181.75678396 26.83689183 C185.10770211 23.47130259 188.44722191 20.09491259 191.77888584 16.71026766 C193.85032042 14.61116922 195.93207968 12.5225581 198.01698208 10.43684387 C198.98403655 9.46520614 199.94677002 8.48924639 200.90487957 7.50878716 C202.20980247 6.17466087 203.53163052 4.85713141 204.85433292 3.54063034 C205.59025921 2.79749745 206.32618549 2.05436457 207.08441257 1.2887125 C209.14278507 -0.16000748 209.14278507 -0.16000748 211.28067398 0.00321388 C213.8526407 1.15898102 215.46360524 2.76368994 217.46822453 4.7455101 C218.73392025 5.98733803 218.73392025 5.98733803 220.02518559 7.25425339 C221.37697155 8.60573723 221.37697155 8.60573723 222.75606632 9.98452377 C224.14948498 11.36652214 224.14948498 11.36652214 225.5710535 12.77643967 C227.53386192 14.72581254 229.49064224 16.68101169 231.44381046 18.64004135 C233.95019292 21.15233293 236.47437773 23.6458591 239.00380516 26.13491917 C241.41180713 28.51090461 243.80157124 30.90492443 246.19356632 33.29702377 C247.10487812 34.19194031 248.01618992 35.08685684 248.95511723 36.00889206 C249.78315357 36.84623383 250.61118992 37.68357559 251.46431828 38.54629135 C252.5687402 39.64763161 252.5687402 39.64763161 253.69547367 40.77122116 C255.14278507 42.83999252 255.14278507 42.83999252 254.9827776 44.69720745 C253.87599516 47.52056221 252.2990075 49.05244331 250.1502161 51.19332504 C249.29059772 52.05706741 248.43097935 52.92080978 247.54531193 53.81072617 C246.58567221 54.7597489 245.62588956 55.70862713 244.66597843 56.65737534 C243.66027329 57.66223423 242.65522834 58.66775425 241.65079594 59.67388535 C238.92208235 62.40346039 236.18421163 65.1236809 233.44462371 67.8423357 C230.58316969 70.68504803 227.73019751 73.53624663 224.87632084 76.38656235 C219.47078332 81.78277203 214.0576433 87.17128823 208.64174134 92.55709338 C202.47631589 98.68899782 196.31939717 104.8294133 190.16318405 110.97056437 C177.49917085 123.60321182 164.82449544 136.22511234 152.14278507 148.83999252 C153.62517813 152.28671083 155.56576425 154.4996184 158.22437382 157.12844467 C159.07839787 157.97799225 159.93242191 158.82753983 160.81232548 159.70283127 C161.75113056 160.62659058 162.68993565 161.55034988 163.65718937 162.5021019 C164.65463334 163.49079396 165.65160033 164.47996743 166.64812565 165.46958542 C168.79260784 167.59759185 170.9400093 169.72259275 173.08959866 171.84543991 C176.48611462 175.20059487 179.87339059 178.56497337 183.25895023 181.93117905 C192.88650525 191.50114665 202.52403973 201.06098641 212.17623234 210.6061058 C217.50864313 215.8795213 222.83212278 221.16178424 228.14588577 226.45399141 C231.511475 229.80490956 234.88786501 233.14442936 238.27250993 236.47609329 C240.37160838 238.54752787 242.4602195 240.62928714 244.54593372 242.71418953 C245.51757145 243.681244 246.4935312 244.64397747 247.47399044 245.60208702 C248.80811672 246.90700992 250.12564619 248.22883798 251.44214725 249.55154037 C252.18528014 250.28746666 252.92841303 251.02339294 253.69406509 251.78162003 C255.14278507 253.83999252 255.14278507 253.83999252 254.97956371 255.97788143 C253.82379657 258.54984815 252.21908765 260.16081269 250.23726749 262.16543198 C249.40938221 263.00922913 248.58149693 263.85302628 247.72852421 264.72239304 C246.37704037 266.074179 246.37704037 266.074179 244.99825382 267.45327377 C244.07692158 268.38221954 243.15558933 269.31116531 242.20633793 270.26826096 C240.25696505 272.23106937 238.3017659 274.18784969 236.34273624 276.14101791 C233.83044467 278.64740037 231.3369185 281.17158518 228.84785843 283.70101261 C226.47187299 286.10901458 224.07785317 288.49877869 221.68575382 290.89077377 C220.79083729 291.80208557 219.89592075 292.71339737 218.97388554 293.65232468 C218.13654377 294.48036102 217.299202 295.30839737 216.43648624 296.16152573 C215.70225941 296.89780701 214.96803257 297.63408829 214.21155643 298.39268112 C212.14278507 299.83999252 212.14278507 299.83999252 210.28557014 299.67998505 C207.46221538 298.57320261 205.93033429 296.99621495 203.78945255 294.84742355 C202.92571018 293.98780518 202.06196781 293.1281868 201.17205143 292.24251938 C200.22302869 291.28287966 199.27415047 290.32309701 198.32540226 289.36318588 C197.32054337 288.35748074 196.31502334 287.35243579 195.30889225 286.34800339 C192.57931721 283.6192898 189.85909669 280.88141908 187.14044189 278.14183116 C184.29772956 275.28037714 181.44653096 272.42740496 178.59621525 269.57352829 C173.20000556 264.16799078 167.81148936 258.75485076 162.42568421 253.33894879 C156.29377978 247.17352334 150.15336429 241.01660462 144.01221323 234.8603915 C131.37956578 222.19637831 118.75766526 209.52170289 106.14278507 196.83999252 C102.69606677 198.32238558 100.48315919 200.2629717 97.85433292 202.92158127 C97.00478535 203.77560532 96.15523777 204.62962936 95.27994633 205.50953293 C94.35618702 206.44833801 93.43242771 207.3871431 92.4806757 208.35439682 C91.49198363 209.35184079 90.50281017 210.34880778 89.51319218 211.3453331 C87.38518574 213.48981529 85.26018484 215.63721675 83.13733768 217.78680611 C79.78218272 221.18332207 76.41780422 224.57059804 73.05159855 227.95615768 C63.48163094 237.5837127 53.92179118 247.22124718 44.37667179 256.87343979 C39.10325629 262.20585058 33.82099335 267.52933023 28.52878618 272.84309322 C25.17786804 276.20868245 21.83834823 279.58507246 18.5066843 282.96971738 C16.43524972 285.06881583 14.35349046 287.15742695 12.26858807 289.24314117 C11.30153359 290.2147789 10.33880013 291.19073866 9.38069057 292.17119789 C8.07576768 293.50532417 6.75393962 294.82285364 5.43123722 296.13935471 C4.69531094 296.88248759 3.95938465 297.62562048 3.20115757 298.39127254 C1.14278507 299.83999252 1.14278507 299.83999252 -0.99510384 299.67677116 C-3.56707055 298.52100402 -5.17803509 296.9162951 -7.18265438 294.93447495 C-8.44835011 293.69264702 -8.44835011 293.69264702 -9.73961544 292.42573166 C-11.09140141 291.07424782 -11.09140141 291.07424782 -12.47049618 289.69546127 C-13.86391483 288.31346291 -13.86391483 288.31346291 -15.28548336 286.90354538 C-17.24829177 284.95417251 -19.20507209 282.99897335 -21.15824032 281.0399437 C-23.66462278 278.52765212 -26.18880759 276.03412595 -28.71823502 273.54506588 C-31.12623698 271.16908044 -33.5160011 268.77506062 -35.90799618 266.38296127 C-36.81930798 265.48804474 -37.73061977 264.5931282 -38.66954708 263.67109299 C-39.49758343 262.83375122 -40.32561977 261.99640945 -41.17874813 261.1336937 C-41.91502941 260.39946686 -42.65131069 259.66524002 -43.40990353 258.90876389 C-44.85721493 256.83999252 -44.85721493 256.83999252 -44.69720745 254.9827776 C-43.59042501 252.15942284 -42.01343735 250.62754174 -39.86464596 248.48666 C-39.00502758 247.62291763 -38.1454092 246.75917526 -37.25974178 245.86925888 C-36.30010206 244.92023615 -35.34031942 243.97135792 -34.38040829 243.02260971 C-33.37470314 242.01775082 -32.3696582 241.01223079 -31.36522579 240.0060997 C-28.6365122 237.27652466 -25.89864149 234.55630414 -23.15905356 231.83764935 C-20.29759955 228.99493701 -17.44462737 226.14373842 -14.59075069 223.2934227 C-9.18521318 217.89721301 -3.77207316 212.50869682 1.64382881 207.12289166 C7.80925425 200.99098723 13.96617297 194.85057174 20.1223861 188.70942068 C32.78639929 176.07677323 45.4610747 163.45487271 58.14278507 150.83999252 C56.66039201 147.39327422 54.71980589 145.18036664 52.06119633 142.55154037 C51.20717228 141.7019928 50.35314823 140.85244522 49.47324467 139.97715378 C48.53443958 139.05339447 47.5956345 138.12963516 46.62838078 137.17788315 C45.63093681 136.18919108 44.63396981 135.20001762 43.6374445 134.21039963 C41.49296231 132.08239319 39.34556084 129.95739229 37.19597149 127.83454514 C33.79945553 124.47939017 30.41217956 121.11501167 27.02661991 117.748806 C17.3990649 108.1788384 7.76153042 98.61899864 -1.89066219 89.07387924 C-7.22307298 83.80046374 -12.54655264 78.5182008 -17.86031562 73.22599363 C-21.22590486 69.87507549 -24.60229486 66.53555568 -27.98693979 63.20389175 C-30.08603823 61.13245717 -32.17464935 59.05069791 -34.26036358 56.96579552 C-35.23200131 55.99874104 -36.20796106 55.03600758 -37.1884203 54.07789803 C-38.52254658 52.77297513 -39.84007604 51.45114707 -41.15657711 50.12844467 C-42.27127644 49.02455524 -42.27127644 49.02455524 -43.40849495 47.89836502 C-44.85721493 45.83999252 -44.85721493 45.83999252 -44.69399357 43.70210361 C-43.53822643 41.1301369 -41.93351751 39.51917236 -39.95169735 37.51455307 C-39.12381207 36.67075592 -38.29592678 35.82695877 -37.44295406 34.95759201 C-36.54196484 34.05640137 -35.64097561 33.15521072 -34.71268368 32.22671127 C-33.79135143 31.2977655 -32.87001919 30.36881973 -31.92076778 29.41172409 C-29.97139491 27.44891568 -28.01619576 25.49213536 -26.0571661 23.53896713 C-23.54487453 21.03258468 -21.05134836 18.50839986 -18.56228828 15.97897243 C-16.18630284 13.57097047 -13.79228302 11.18120635 -11.40018368 8.78921127 C-10.50526714 7.87789948 -9.61035061 6.96658768 -8.68831539 6.02766037 C-7.85097363 5.19962402 -7.01363186 4.37158768 -6.1509161 3.51845932 C-5.41668926 2.78217804 -4.68246243 2.04589676 -3.92598629 1.28730392 C-1.85721493 -0.16000748 -1.85721493 -0.16000748 0 0 Z " fill="#919191" transform="translate(56.85721492767334,8.16000747680664)"/>
</svg>
