<svg width="116" height="44" viewBox="0 0 116 44" fill="none" xmlns="http://www.w3.org/2000/svg">
<circle cx="20" cy="19.3602" r="19.2" fill="#1B92FF"/>
<mask id="mask0_1_981" style="mask-type:alpha" maskUnits="userSpaceOnUse" x="20" y="0" width="20" height="44">
<rect width="19.2" height="43.68" transform="matrix(1 0 0 -1 20.0002 43.8398)" fill="#D9D9D9"/>
</mask>
<g mask="url(#mask0_1_981)">
<path d="M0.800194 19.3602C0.800194 35.2002 20.0002 43.8402 20.0002 43.8402C20.0002 43.8402 39.2002 35.2002 39.2002 19.3602C39.2002 8.75629 30.6041 0.160156 20.0002 0.160156C9.39633 0.160156 0.800194 8.75629 0.800194 19.3602Z" fill="#1B92FF"/>
</g>
<rect x="24.8392" y="12.0703" width="5.376" height="14.592" rx="2.688" fill="#E9F4FF"/>
<rect x="15.5028" y="12.0977" width="5.376" height="14.592" rx="2.688" fill="#E9F4FF"/>
<rect opacity="0.8" x="18.2" y="10.9727" width="5.376" height="18.4929" rx="2.688" transform="rotate(45.4799 18.2 10.9727)" fill="#E9F4FF"/>
<rect opacity="0.8" x="31.2678" y="16.6387" width="5.30213" height="10.4446" rx="2.65107" transform="rotate(45.4799 31.2678 16.6387)" fill="#E9F4FF"/>
<rect opacity="0.8" x="27.5364" y="10.9453" width="5.43795" height="18.4261" rx="2.71897" transform="rotate(45.4799 27.5364 10.9453)" fill="#E9F4FF"/>
<path d="M87.3703 22.6567C86.601 22.6301 85.9643 22.5506 85.4602 22.4179C84.9827 22.2587 84.5981 22.0465 84.3062 21.7812C84.0144 21.4894 83.8022 21.1313 83.6695 20.7068C83.5634 20.2558 83.4971 19.7252 83.4706 19.1151C83.4706 18.8763 83.4573 18.4917 83.4308 17.9611C83.4308 17.404 83.4308 16.7938 83.4308 16.1306C83.4308 15.4409 83.4175 14.7246 83.391 13.9818C83.391 13.239 83.391 12.5227 83.391 11.8329C83.391 11.1432 83.391 10.533 83.391 10.0025C83.391 9.47188 83.391 9.07395 83.391 8.80866C83.391 7.8271 83.6563 7.09756 84.1869 6.62004C84.744 6.11599 85.4204 5.86397 86.2163 5.86397C87.0652 5.86397 87.755 6.11599 88.2855 6.62004C88.8427 7.09756 89.1212 7.84036 89.1212 8.84846V10.4004C89.6253 10.4004 90.2222 10.4004 90.9119 10.4004C91.6016 10.4004 92.3047 10.4004 93.0209 10.4004C93.7372 10.4004 94.4402 10.4004 95.13 10.4004C95.8197 10.4004 96.4166 10.4004 96.9207 10.4004V8.60969C96.9207 7.68119 97.1992 6.99144 97.7563 6.54045C98.3134 6.08947 99.0032 5.86397 99.8256 5.86397C100.621 5.86397 101.298 6.0762 101.855 6.50066C102.412 6.92512 102.691 7.57508 102.691 8.45053C102.691 8.7954 102.691 9.47188 102.691 10.48C102.717 11.4615 102.73 12.5227 102.73 13.6634C102.73 14.8042 102.73 15.8918 102.73 16.9265C102.73 17.9346 102.717 18.6376 102.691 19.0355C102.664 19.6457 102.585 20.1762 102.452 20.6272C102.319 21.0517 102.094 21.4098 101.775 21.7016C101.457 21.9669 101.019 22.1792 100.462 22.3383C99.9052 22.4975 99.1756 22.5904 98.2736 22.6169C97.5839 22.6699 96.7748 22.7097 95.8462 22.7363C94.9443 22.7363 94.0025 22.7495 93.0209 22.7761C92.0659 22.7761 91.0976 22.7761 90.116 22.7761C89.1345 22.7495 88.2192 22.7097 87.3703 22.6567ZM89.1212 17.1652C89.1477 17.5897 89.2273 17.8417 89.36 17.9213C89.4926 18.0009 89.7844 18.0539 90.2354 18.0805C91.0843 18.107 91.9863 18.1203 92.9413 18.1203C93.8964 18.1203 94.7586 18.0937 95.5279 18.0407C95.8197 18.0141 96.0585 18.0009 96.2442 18.0009C96.4299 17.9744 96.5758 17.9478 96.6819 17.9213C96.788 17.8682 96.8543 17.7886 96.8809 17.6825C96.9339 17.5499 96.9605 17.3775 96.9605 17.1652V14.7378C96.4564 14.7378 95.8595 14.7378 95.1698 14.7378C94.48 14.7113 93.7637 14.698 93.0209 14.698C92.3047 14.698 91.6016 14.7113 90.9119 14.7378C90.2222 14.7378 89.6253 14.7378 89.1212 14.7378V17.1652ZM94.1749 31.451C94.1749 30.2572 94.3872 29.1828 94.8116 28.2277C95.2626 27.2727 95.8728 26.4636 96.6421 25.8003C97.438 25.1371 98.393 24.6331 99.5072 24.2882C100.621 23.9433 101.855 23.7709 103.208 23.7709C104.455 23.7709 105.596 23.9433 106.63 24.2882C107.691 24.6331 108.593 25.1371 109.336 25.8003C110.105 26.4636 110.702 27.2727 111.127 28.2277C111.551 29.1562 111.764 30.2306 111.764 31.451C111.764 32.5386 111.565 33.5467 111.167 34.4752C110.795 35.4037 110.238 36.2129 109.495 36.9026C108.752 37.5924 107.851 38.1362 106.789 38.5341C105.755 38.9321 104.561 39.131 103.208 39.131C101.855 39.131 100.621 38.9321 99.5072 38.5341C98.4195 38.1362 97.4778 37.5924 96.6819 36.9026C95.886 36.2129 95.2626 35.4037 94.8116 34.4752C94.3872 33.5467 94.1749 32.5386 94.1749 31.451ZM100.064 31.3714C100.064 32.1407 100.343 32.7774 100.9 33.2814C101.457 33.759 102.187 33.9977 103.089 33.9977C104.017 33.9977 104.76 33.759 105.317 33.2814C105.901 32.7774 106.192 32.1407 106.192 31.3714C106.192 30.5225 105.914 29.8725 105.357 29.4215C104.8 28.944 104.044 28.7052 103.089 28.7052C102.187 28.7052 101.457 28.9307 100.9 29.3817C100.343 29.8062 100.064 30.4694 100.064 31.3714ZM108.222 8.25156C108.169 7.13735 108.381 6.30169 108.859 5.74459C109.363 5.16096 110.105 4.86914 111.087 4.86914C111.989 4.86914 112.719 5.14769 113.276 5.7048C113.859 6.23537 114.178 7.13735 114.231 8.41073C114.284 9.7637 114.31 10.9708 114.31 12.0319C114.337 13.0665 114.35 14.0481 114.35 14.9766C114.35 15.8786 114.337 16.7408 114.31 17.5632C114.31 18.3855 114.297 19.2345 114.27 20.1099C114.217 21.3833 113.939 22.3914 113.435 23.1342C112.931 23.877 112.175 24.2484 111.167 24.2484C110.159 24.2484 109.416 23.9566 108.938 23.373C108.487 22.7628 108.302 21.7812 108.381 20.4283C108.408 19.7385 108.421 18.9029 108.421 17.9213C108.447 16.9397 108.447 15.9051 108.421 14.8174C108.421 13.7032 108.394 12.5757 108.341 11.435C108.315 10.2943 108.275 9.23312 108.222 8.25156Z" fill="#1B92FF"/>
<path d="M65.1291 38.8927C64.3598 38.8927 63.6303 38.6274 62.9405 38.0969C62.2773 37.5663 61.9192 36.7837 61.8661 35.7491C61.8661 35.4307 61.8528 35.046 61.8263 34.5951C61.8263 34.1441 61.813 33.6533 61.7865 33.1227C61.7865 32.5921 61.7865 32.035 61.7865 31.4514C61.7865 30.8678 61.7865 30.2841 61.7865 29.7005C59.8499 29.674 57.9664 29.6342 56.1359 29.5811C54.3319 29.5281 52.7004 29.4352 51.2413 29.3026C50.021 29.1965 49.1721 28.9046 48.6946 28.4271C48.2171 27.9231 48.0048 27.2864 48.0579 26.517C48.1109 25.7477 48.363 25.1243 48.814 24.6468C49.2915 24.1427 50.1669 23.9172 51.4403 23.9703C53.5891 24.0499 55.8176 24.1162 58.1256 24.1693C60.4601 24.1958 62.7813 24.209 65.0894 24.209C67.4239 24.209 69.7319 24.1958 72.0134 24.1693C74.2948 24.1162 76.4702 24.0366 78.5394 23.9305C79.8924 23.8774 80.8342 24.1295 81.3647 24.6866C81.9219 25.2171 82.2004 25.8936 82.2004 26.716C82.2004 27.4853 81.9882 28.0822 81.5637 28.5067C81.1658 28.9046 80.4628 29.1567 79.4547 29.2628C78.2874 29.3954 76.7355 29.5015 74.7989 29.5811C72.8888 29.6342 70.793 29.674 68.5116 29.7005C68.485 30.5494 68.4585 31.4249 68.432 32.3269C68.432 33.2023 68.432 33.9982 68.432 34.7144C68.432 35.4307 68.3259 36.0409 68.1136 36.5449C67.9279 37.0755 67.6759 37.5132 67.3576 37.8581C67.0657 38.203 66.7209 38.455 66.3229 38.6142C65.925 38.7999 65.5271 38.8927 65.1291 38.8927ZM51.5995 16.1708C51.5995 15.1627 51.5995 14.3271 51.5995 13.6639C51.5995 13.0006 51.5995 12.4303 51.5995 11.9528C51.626 11.4487 51.6393 10.9977 51.6393 10.5998C51.6658 10.2019 51.7056 9.75087 51.7586 9.24682C51.8382 8.37137 52.1168 7.72142 52.5943 7.29696C53.0718 6.84597 53.8544 6.60721 54.9421 6.58068C56.6134 6.55415 58.3245 6.52762 60.0754 6.5011C61.8528 6.47457 63.617 6.4613 65.3679 6.4613C67.1188 6.43477 68.8299 6.43477 70.5012 6.4613C72.1725 6.4613 73.751 6.5011 75.2366 6.58068C76.3243 6.63374 77.1069 6.8725 77.5844 7.29696C78.0619 7.72142 78.3405 8.37137 78.4201 9.24682C78.4466 9.75087 78.4731 10.2019 78.4996 10.5998C78.5262 10.9977 78.5394 11.4487 78.5394 11.9528C78.566 12.4303 78.5792 13.0006 78.5792 13.6639C78.5792 14.3271 78.5792 15.1627 78.5792 16.1708C78.5792 17.1259 78.5129 17.935 78.3803 18.5982C78.2741 19.2349 78.0354 19.7655 77.664 20.1899C77.2926 20.5879 76.762 20.893 76.0723 21.1052C75.3825 21.3174 74.454 21.4633 73.2867 21.5429C72.2786 21.596 71.0981 21.6358 69.7452 21.6623C68.3922 21.6888 66.9729 21.7021 65.4873 21.7021C64.0017 21.7021 62.5028 21.6888 60.9907 21.6623C59.505 21.6358 58.1388 21.6092 56.892 21.5827C55.7247 21.5562 54.7962 21.4368 54.1064 21.2246C53.4167 21.0123 52.8861 20.694 52.5147 20.2695C52.1433 19.8185 51.8913 19.2614 51.7586 18.5982C51.6525 17.935 51.5995 17.1259 51.5995 16.1708ZM57.6082 12.5497C57.5817 13.0537 57.5684 13.4649 57.5684 13.7832C57.595 14.0751 57.6215 14.473 57.648 14.977C57.7011 15.5341 57.8205 15.9055 58.0062 16.0912C58.2184 16.2769 58.6296 16.3831 59.2398 16.4096C60.0091 16.4361 60.8978 16.4626 61.9059 16.4892C62.9405 16.4892 63.9884 16.4892 65.0496 16.4892C66.1372 16.4892 67.1984 16.4892 68.233 16.4892C69.2676 16.4626 70.1696 16.4361 70.9389 16.4096C71.5491 16.3831 71.947 16.2769 72.1327 16.0912C72.345 15.9055 72.4776 15.5341 72.5307 14.977C72.5572 14.473 72.5705 14.0751 72.5705 13.7832C72.597 13.4649 72.597 13.0537 72.5705 12.5497C72.5439 12.2578 72.4776 12.0589 72.3715 11.9528C72.2919 11.8466 72.0797 11.7803 71.7348 11.7538C71.0451 11.7007 70.09 11.6742 68.8697 11.6742C67.6759 11.6477 66.4158 11.6344 65.0894 11.6344C63.7894 11.6344 62.5293 11.6477 61.309 11.6742C60.0887 11.7007 59.1336 11.7273 58.4439 11.7538C58.099 11.7803 57.8735 11.8466 57.7674 11.9528C57.6878 12.0589 57.6348 12.2578 57.6082 12.5497Z" fill="#1B92FF"/>
</svg>
