<?xml version="1.0" encoding="UTF-8"?>
<svg version="1.1" xmlns="http://www.w3.org/2000/svg" width="48" height="48">
<path d="M0 0 C5.82485779 3.51996782 10.54466582 8.98962934 12.5625 15.5 C13.36764105 23.33608208 13.68710392 31.11922577 8.5625 37.5 C3.75801361 42.54521222 -0.59927055 46.10562995 -7.70703125 46.8359375 C-16.22326573 46.92983204 -22.11345494 46.6177288 -28.40234375 40.62890625 C-34.7841668 33.72505269 -35.91792252 28.29832071 -35.7421875 18.9453125 C-35.04689797 11.08319245 -31.38995981 6.95041296 -25.53515625 1.9453125 C-18.47077988 -2.92213491 -7.84396301 -3.47595223 0 0 Z " fill="#F1F8FF" transform="translate(35.4375,1.5)"/>
<path d="M0 0 C5.82485779 3.51996782 10.54466582 8.98962934 12.5625 15.5 C13.36764105 23.33608208 13.68710392 31.11922577 8.5625 37.5 C3.75801361 42.54521222 -0.59927055 46.10562995 -7.70703125 46.8359375 C-16.22326573 46.92983204 -22.11345494 46.6177288 -28.40234375 40.62890625 C-34.7841668 33.72505269 -35.91792252 28.29832071 -35.7421875 18.9453125 C-35.04689797 11.08319245 -31.38995981 6.95041296 -25.53515625 1.9453125 C-18.47077988 -2.92213491 -7.84396301 -3.47595223 0 0 Z M-30.2109375 10.75390625 C-34.01368599 16.16737305 -34.14037394 21.01193282 -33.4375 27.5 C-31.42763992 34.82708484 -25.84897518 39.81007611 -19.515625 43.671875 C-14.74850573 45.57155411 -9.07873689 45.22450595 -4.1875 43.8828125 C1.97809852 41.16127878 6.82498332 36.12662877 9.7265625 30.0703125 C11.50711768 24.59552133 11.57687906 19.13663968 9.5 13.73828125 C5.70006269 6.83024304 1.00179262 2.97976421 -6.4375 0.5 C-17.31517303 -0.73010842 -23.37547368 2.48643185 -30.2109375 10.75390625 Z " fill="#52ACFF" transform="translate(35.4375,1.5)"/>
<path d="M0 0 C1.32 0 2.64 0 4 0 C4 5.28 4 10.56 4 16 C2.68 16 1.36 16 0 16 C0 10.72 0 5.44 0 0 Z " fill="#4CA9FF" transform="translate(22,12)"/>
</svg>
